<svg id="visual" viewBox="0 0 900 600" width="900" height="600" xmlns="http://www.w3.org/2000/svg" xmlns:xlink="http://www.w3.org/1999/xlink" version="1.1"><rect width="900" height="600" fill="#000000"></rect><g><g transform="translate(432 268)"><path d="M0 -68.6L59.4 -34.3L59.4 34.3L0 68.6L-59.4 34.3L-59.4 -34.3Z" fill="#6cacca"></path></g><g transform="translate(592 402)"><path d="M0 -30L26 -15L26 15L0 30L-26 15L-26 -15Z" fill="#6cacca"></path></g><g transform="translate(198 487)"><path d="M0 -25L21.7 -12.5L21.7 12.5L0 25L-21.7 12.5L-21.7 -12.5Z" fill="#6cacca"></path></g><g transform="translate(814 485)"><path d="M0 -46L39.8 -23L39.8 23L0 46L-39.8 23L-39.8 -23Z" fill="#6cacca"></path></g><g transform="translate(811 272)"><path d="M0 -30L26 -15L26 15L0 30L-26 15L-26 -15Z" fill="#6cacca"></path></g><g transform="translate(215 247)"><path d="M0 -25L21.7 -12.5L21.7 12.5L0 25L-21.7 12.5L-21.7 -12.5Z" fill="#6cacca"></path></g><g transform="translate(843 46)"><path d="M0 -47L40.7 -23.5L40.7 23.5L0 47L-40.7 23.5L-40.7 -23.5Z" fill="#6cacca"></path></g><g transform="translate(90 347)"><path d="M0 -34L29.4 -17L29.4 17L0 34L-29.4 17L-29.4 -17Z" fill="#6cacca"></path></g><g transform="translate(448 64)"><path d="M0 -26L22.5 -13L22.5 13L0 26L-22.5 13L-22.5 -13Z" fill="#6cacca"></path></g><g transform="translate(25 185)"><path d="M0 -46L39.8 -23L39.8 23L0 46L-39.8 23L-39.8 -23Z" fill="#6cacca"></path></g><g transform="translate(625 123)"><path d="M0 -58L50.2 -29L50.2 29L0 58L-50.2 29L-50.2 -29Z" fill="#6cacca"></path></g><g transform="translate(43 25)"><path d="M0 -65L56.3 -32.5L56.3 32.5L0 65L-56.3 32.5L-56.3 -32.5Z" fill="#6cacca"></path></g><g transform="translate(534 582)"><path d="M0 -38L32.9 -19L32.9 19L0 38L-32.9 19L-32.9 -19Z" fill="#6cacca"></path></g><g transform="translate(665 278)"><path d="M0 -36L31.2 -18L31.2 18L0 36L-31.2 18L-31.2 -18Z" fill="#6cacca"></path></g><g transform="translate(295 35)"><path d="M0 -44L38.1 -22L38.1 22L0 44L-38.1 22L-38.1 -22Z" fill="#6cacca"></path></g><g transform="translate(80 558)"><path d="M0 -53L45.9 -26.5L45.9 26.5L0 53L-45.9 26.5L-45.9 -26.5Z" fill="#6cacca"></path></g></g></svg>