<svg id="visual" viewBox="0 0 900 600" width="900" height="600" xmlns="http://www.w3.org/2000/svg" xmlns:xlink="http://www.w3.org/1999/xlink" version="1.1"><rect width="900" height="600" fill="#f5f5f5"></rect><g><g transform="translate(685 214)"><path d="M0 -68.6L59.4 -34.3L59.4 34.3L0 68.6L-59.4 34.3L-59.4 -34.3Z" fill="#9eaeca"></path></g><g transform="translate(764 432)"><path d="M0 -33L28.6 -16.5L28.6 16.5L0 33L-28.6 16.5L-28.6 -16.5Z" fill="#9eaeca"></path></g><g transform="translate(392 54)"><path d="M0 -20L17.3 -10L17.3 10L0 20L-17.3 10L-17.3 -10Z" fill="#9eaeca"></path></g><g transform="translate(15 113)"><path d="M0 -18L15.6 -9L15.6 9L0 18L-15.6 9L-15.6 -9Z" fill="#9eaeca"></path></g><g transform="translate(410 364)"><path d="M0 -49L42.4 -24.5L42.4 24.5L0 49L-42.4 24.5L-42.4 -24.5Z" fill="#9eaeca"></path></g><g transform="translate(77 389)"><path d="M0 -36L31.2 -18L31.2 18L0 36L-31.2 18L-31.2 -18Z" fill="#9eaeca"></path></g><g transform="translate(512 487)"><path d="M0 -21L18.2 -10.5L18.2 10.5L0 21L-18.2 10.5L-18.2 -10.5Z" fill="#9eaeca"></path></g><g transform="translate(174 111)"><path d="M0 -30L26 -15L26 15L0 30L-26 15L-26 -15Z" fill="#9eaeca"></path></g><g transform="translate(776 80)"><path d="M0 -35L30.3 -17.5L30.3 17.5L0 35L-30.3 17.5L-30.3 -17.5Z" fill="#9eaeca"></path></g></g></svg>